<svg xmlns="http://www.w3.org/2000/svg" width="32" height="32" viewBox="0 0 21900 21900" shape-rendering="geometricPrecision" text-rendering="geometricPrecision" image-rendering="optimizeQuality" fill-rule="evenodd" clip-rule="evenodd"><path fill="none" d="M0 0h21900v21900H0z"/><path fill="#fff" d="M1800 6100c700-3400 2700-5100 7400-5100 3900 0 5900 1100 6900 3400 3900 600 5800 2500 5800 7600 0 6900-3500 7800-11000 7800C3500 19800 0 18900 0 12000c0-2900 600-4700 1800-5900zm12500-1900c-1000-1200-2500-1800-5100-1800-2900 0-4600 800-5500 2500 1800-600 4200-800 7200-800 1300 0 2400 0 3400 100zM1400 12000c0-5800 3000-6500 9500-6500s9600 700 9600 6500c0 5700-3100 6500-9600 6500s-9500-800-9500-6500z"/></svg>